# xmcd CD database file
# Copyright (C) 1997 Ti Kan
# 
# Track frame offsets:
#     150
#     13195
#     33693
#     50435
#     64940
#     84993
#     113060
#     134280
#     156675
#     172285
#     191145
#     219058
# 
# Disc length: 3247 seconds
# 
# Revision: 1
# Processed by: cddbd v1.4b41PL1 Copyright (c) Steve Scherf et al.
# Submitted via: DiscPlay 4.0.3
# 
DISCID=af0cad0c
DTITLE=Screamin' Jay Hawkins - Black Music For White People
DYEAR=1900
DGENRE=
TTITLE0=Is You Is Or Is You Ain't My Baby
TTITLE1=I Feel Allright
TTITLE2=I Put A Spell On You (Dance Version)
TTITLE3=I Hear You Knockin'
TTITLE4=Heart Attack And Vine
TTITLE5=Ignant And Shit
TTITLE6=Swamp Gas
TTITLE7=Voodoo Priestess
TTITLE8=Ice Cream Man
TTITLE9=I Want Your Body
TTITLE10=Ol' Man River
TTITLE11=Strokin'
EXTD=Screamin' Jay Hawkins - Vocals, Piano\nMichael Keneally - Guitars, Keyb
EXTD=oards, Backing Vocals\nRik Shannon - Drums, Percussion, Background Voca
EXTD=ls\nBara Southern - Saxophone\nDana Garrett - Saxophone\nBo Diddley, Jr
EXTD=Guitars\nMark Goldberg - Stand-up and Electric Bass\nJulie Syperda-
EXTD=Duffey - Backing Vocals\nMeredith Marshall - Backing Vocals\nJill Foor 
EXTD=Backing Vocals
EXTT0=
EXTT1=
EXTT2=Tonio - Rap\nSteve Batte - Piano
EXTT3=
EXTT4=
EXTT5=
EXTT6=
EXTT7=
EXTT8=
EXTT9=
EXTT10=
EXTT11=
PLAYORDER=
